<svg width="427.1" height="91.7" viewBox="0 0 427.1 91.7" xmlns="http://www.w3.org/2000/svg"><g id="svgGroup" stroke-linecap="round" fill-rule="evenodd" font-size="9pt" stroke="#1876f2" stroke-width="0.5mm" fill="#1876f2" style="stroke:#1876f2;stroke-width:0.5mm;fill:#1876f2"><path d="M 293.1 70.3 L 280.9 70.3 L 280.9 36.3 A 7.067 7.067 0 0 0 280.825 35.231 Q 280.64 34.025 280 33.35 A 2.634 2.634 0 0 0 279.033 32.72 Q 278.22 32.401 277.005 32.4 A 6.423 6.423 0 0 0 277 32.4 A 11.634 11.634 0 0 0 275.271 32.542 Q 273.508 32.808 271.223 33.576 A 37.808 37.808 0 0 0 271.15 33.6 Q 267.6 34.8 264.3 36.5 L 264.3 70.3 L 252.1 70.3 L 252.1 21.6 L 261.4 21.6 L 262.6 25.7 A 51.051 51.051 0 0 1 271.676 22.224 A 56.756 56.756 0 0 1 272.5 22 A 46.644 46.644 0 0 1 276.946 21.043 Q 279.681 20.6 282.1 20.6 A 14.889 14.889 0 0 1 285.243 20.908 Q 287.123 21.315 288.502 22.257 A 7.541 7.541 0 0 1 290.65 24.5 A 14.449 14.449 0 0 1 292.324 28.427 Q 293.1 31.286 293.1 35 L 293.1 70.3 Z M 427.1 70.3 L 414.9 70.3 L 414.9 36.3 A 7.067 7.067 0 0 0 414.825 35.231 Q 414.64 34.025 414 33.35 A 2.634 2.634 0 0 0 413.033 32.72 Q 412.22 32.401 411.005 32.4 A 6.423 6.423 0 0 0 411 32.4 A 11.634 11.634 0 0 0 409.271 32.542 Q 407.508 32.808 405.223 33.576 A 37.808 37.808 0 0 0 405.15 33.6 Q 401.6 34.8 398.3 36.5 L 398.3 70.3 L 386.1 70.3 L 386.1 21.6 L 395.4 21.6 L 396.6 25.7 A 51.051 51.051 0 0 1 405.676 22.224 A 56.756 56.756 0 0 1 406.5 22 A 46.644 46.644 0 0 1 410.946 21.043 Q 413.681 20.6 416.1 20.6 A 14.889 14.889 0 0 1 419.243 20.908 Q 421.123 21.315 422.502 22.257 A 7.541 7.541 0 0 1 424.65 24.5 A 14.449 14.449 0 0 1 426.324 28.427 Q 427.1 31.286 427.1 35 L 427.1 70.3 Z M 105.2 21.6 L 117.4 21.6 L 117.4 55.6 A 7.067 7.067 0 0 0 117.475 56.669 Q 117.66 57.875 118.3 58.55 A 2.634 2.634 0 0 0 119.267 59.18 Q 120.08 59.499 121.295 59.5 A 6.423 6.423 0 0 0 121.3 59.5 A 11.634 11.634 0 0 0 123.029 59.358 Q 124.792 59.092 127.077 58.324 A 37.808 37.808 0 0 0 127.15 58.3 Q 130.7 57.1 134 55.4 L 134 21.6 L 146.2 21.6 L 146.2 70.3 L 136.9 70.3 L 135.7 66.2 A 51.051 51.051 0 0 1 126.624 69.676 A 56.756 56.756 0 0 1 125.8 69.9 A 46.644 46.644 0 0 1 121.354 70.857 Q 118.619 71.3 116.2 71.3 A 14.889 14.889 0 0 1 113.057 70.992 Q 111.177 70.585 109.798 69.643 A 7.541 7.541 0 0 1 107.65 67.4 A 14.449 14.449 0 0 1 105.976 63.473 Q 105.2 60.614 105.2 56.9 L 105.2 21.6 Z M 179.5 68.5 L 181.2 59.2 Q 184.3 60.1 188.1 60.7 Q 191.9 61.3 195.7 61.3 A 26.693 26.693 0 0 0 196.877 61.276 Q 198.091 61.222 198.95 61.05 Q 199.806 60.879 200.381 60.567 A 2.767 2.767 0 0 0 200.85 60.25 Q 201.5 59.7 201.7 58.75 Q 201.849 58.041 201.887 57.082 A 17.301 17.301 0 0 0 201.9 56.4 A 10.472 10.472 0 0 0 201.844 55.288 A 8.025 8.025 0 0 0 201.7 54.4 A 2.751 2.751 0 0 0 201.215 53.359 A 3.914 3.914 0 0 0 200.65 52.75 Q 199.8 52 198.1 51.35 A 21.44 21.44 0 0 0 196.911 50.939 Q 195.463 50.481 193.4 50 Q 189 48.924 186.416 47.753 A 18.853 18.853 0 0 1 186.3 47.7 A 14.251 14.251 0 0 1 184.39 46.645 Q 183.133 45.811 182.3 44.8 Q 180.9 43.1 180.5 40.65 A 27.069 27.069 0 0 1 180.256 38.665 Q 180.159 37.554 180.122 36.283 A 55.016 55.016 0 0 1 180.1 34.7 Q 180.1 31 181 28.35 Q 181.9 25.7 184 24 A 11.198 11.198 0 0 1 186.276 22.593 Q 187.375 22.074 188.695 21.691 A 21.043 21.043 0 0 1 189.6 21.45 A 26.429 26.429 0 0 1 192.464 20.932 Q 195.05 20.6 198.3 20.6 A 59.508 59.508 0 0 1 202.315 20.742 A 76.616 76.616 0 0 1 205.7 21.05 Q 209.7 21.5 212.9 22.3 L 211.7 32 Q 209.775 31.656 207.354 31.336 A 154.037 154.037 0 0 0 205.05 31.05 A 76.961 76.961 0 0 0 202.296 30.776 Q 200.795 30.655 199.469 30.617 A 41.087 41.087 0 0 0 198.3 30.6 Q 194.644 30.6 193.411 31.394 A 1.869 1.869 0 0 0 193.2 31.55 A 2.775 2.775 0 0 0 192.448 32.64 Q 192.263 33.1 192.176 33.681 A 7.605 7.605 0 0 0 192.1 34.8 Q 192.1 36.036 192.202 36.831 A 6.858 6.858 0 0 0 192.25 37.15 Q 192.4 38 193.05 38.6 Q 193.7 39.2 195.1 39.65 A 30.964 30.964 0 0 0 196.082 39.946 Q 197.281 40.287 199 40.7 A 140.051 140.051 0 0 1 201.978 41.551 Q 204.82 42.399 206.776 43.144 A 38.258 38.258 0 0 1 207.05 43.25 Q 210 44.4 211.55 46 A 7.163 7.163 0 0 1 213.373 49.377 A 8.92 8.92 0 0 1 213.5 50 Q 213.772 51.631 213.859 53.863 A 57.517 57.517 0 0 1 213.9 56.1 Q 213.9 59.6 213.2 62.45 A 10.708 10.708 0 0 1 211.822 65.714 A 9.757 9.757 0 0 1 210.6 67.25 A 9.923 9.923 0 0 1 208.396 68.928 Q 207.371 69.513 206.114 69.964 A 18.567 18.567 0 0 1 205.25 70.25 A 20.869 20.869 0 0 1 202.44 70.88 Q 200.954 71.114 199.213 71.218 A 49.114 49.114 0 0 1 196.3 71.3 A 44.652 44.652 0 0 1 193.255 71.192 A 51.826 51.826 0 0 1 192.1 71.1 Q 189.9 70.9 187.65 70.5 A 77.302 77.302 0 0 1 183.563 69.662 A 70.945 70.945 0 0 1 183.3 69.6 Q 181.2 69.1 179.5 68.5 Z M 93.7 37.5 L 93.7 54.1 A 27.912 27.912 0 0 1 93.291 59.033 Q 92.793 61.8 91.691 64.002 A 14.148 14.148 0 0 1 89.9 66.75 A 11.617 11.617 0 0 1 84.732 70.232 Q 81.717 71.3 77.6 71.3 Q 74.4 71.3 70.95 70.9 A 80.891 80.891 0 0 1 67.243 70.387 A 63.648 63.648 0 0 1 64.6 69.9 L 64.6 90 L 52.4 91.7 L 52.4 21.6 L 62.1 21.6 L 63.3 25.7 Q 66.5 23.4 70.3 22 A 22.72 22.72 0 0 1 75.903 20.737 A 27.943 27.943 0 0 1 78.7 20.6 A 20.537 20.537 0 0 1 83.071 21.036 Q 85.858 21.643 87.928 23.096 A 11.497 11.497 0 0 1 89.9 24.85 Q 92.856 28.156 93.512 33.972 A 31.486 31.486 0 0 1 93.7 37.5 Z M 347.9 37.5 L 347.9 54.1 A 27.912 27.912 0 0 1 347.491 59.033 Q 346.993 61.8 345.891 64.002 A 14.148 14.148 0 0 1 344.1 66.75 A 11.617 11.617 0 0 1 338.932 70.232 Q 335.917 71.3 331.8 71.3 Q 328.6 71.3 325.15 70.9 A 80.891 80.891 0 0 1 321.443 70.387 A 63.648 63.648 0 0 1 318.8 69.9 L 318.8 90 L 306.6 91.7 L 306.6 21.6 L 316.3 21.6 L 317.5 25.7 Q 320.7 23.4 324.5 22 A 22.72 22.72 0 0 1 330.103 20.737 A 27.943 27.943 0 0 1 332.9 20.6 A 20.537 20.537 0 0 1 337.271 21.036 Q 340.058 21.643 342.128 23.096 A 11.497 11.497 0 0 1 344.1 24.85 Q 347.056 28.156 347.712 33.972 A 31.486 31.486 0 0 1 347.9 37.5 Z M 12.2 70.3 L 0 70.3 L 0 1.7 L 12.2 0 L 12.2 70.3 Z M 38.4 70.3 L 26.2 70.3 L 26.2 21.6 L 38.4 21.6 L 38.4 70.3 Z M 238.1 70.3 L 225.9 70.3 L 225.9 21.6 L 238.1 21.6 L 238.1 70.3 Z M 372.1 70.3 L 359.9 70.3 L 359.9 21.6 L 372.1 21.6 L 372.1 70.3 Z M 64.6 35.4 L 64.6 59.6 Q 67 60.1 69.9 60.5 Q 72.8 60.9 75.4 60.9 A 10.726 10.726 0 0 0 77.063 60.78 Q 79.083 60.463 80.1 59.3 A 4.95 4.95 0 0 0 81.026 57.666 Q 81.285 56.93 81.403 56.022 A 12.663 12.663 0 0 0 81.5 54.4 L 81.5 37.2 A 11.124 11.124 0 0 0 81.373 35.462 Q 81.227 34.54 80.912 33.799 A 4.964 4.964 0 0 0 80.2 32.6 A 3.716 3.716 0 0 0 78.729 31.535 Q 77.545 31.033 75.743 31.002 A 13.974 13.974 0 0 0 75.5 31 A 14.453 14.453 0 0 0 70.15 32.049 A 16.806 16.806 0 0 0 69.55 32.3 Q 66.6 33.6 64.6 35.4 Z M 318.8 35.4 L 318.8 59.6 Q 321.2 60.1 324.1 60.5 Q 327 60.9 329.6 60.9 A 10.726 10.726 0 0 0 331.263 60.78 Q 333.283 60.463 334.3 59.3 A 4.95 4.95 0 0 0 335.226 57.666 Q 335.485 56.93 335.603 56.022 A 12.663 12.663 0 0 0 335.7 54.4 L 335.7 37.2 A 11.124 11.124 0 0 0 335.573 35.462 Q 335.427 34.54 335.112 33.799 A 4.964 4.964 0 0 0 334.4 32.6 A 3.716 3.716 0 0 0 332.929 31.535 Q 331.745 31.033 329.943 31.002 A 13.974 13.974 0 0 0 329.7 31 A 14.453 14.453 0 0 0 324.35 32.049 A 16.806 16.806 0 0 0 323.75 32.3 Q 320.8 33.6 318.8 35.4 Z M 38.4 14.7 L 26.2 14.7 L 26.2 0.6 L 38.4 0.6 L 38.4 14.7 Z M 238.1 14.7 L 225.9 14.7 L 225.9 0.6 L 238.1 0.6 L 238.1 14.7 Z M 372.1 14.7 L 359.9 14.7 L 359.9 0.6 L 372.1 0.6 L 372.1 14.7 Z" vector-effect="non-scaling-stroke"/></g></svg>