<?xml version="1.0" encoding="utf-8"?>
<svg viewBox="0 0 90 90" xmlns="http://www.w3.org/2000/svg">
  <defs>
    <clipPath id="clip-0">
      <ellipse style="stroke: rgba(24, 119, 242, 0); fill: rgb(24, 119, 242);" cx="45" rx="45" ry="45" cy="45"/>
    </clipPath>
  </defs>
  <ellipse style="stroke: rgba(24, 119, 242, 0); fill: rgb(24, 119, 242);" cx="45" rx="45" ry="45" cy="45" transform="matrix(1, 0, 0, 1, 0, 7.105427357601002e-15)"/>
  <path d="M 40.958 85.5 L 42.689 76.2 C 44.795 76.8 47.137 77.3 49.718 77.7 C 52.299 78.1 54.879 78.3 57.46 78.3 C 57.86 78.301 58.26 78.293 58.659 78.276 C 59.483 78.24 60.187 78.165 60.771 78.05 C 61.352 77.936 61.838 77.775 62.228 77.567 C 62.398 77.478 62.558 77.371 62.706 77.25 C 63.148 76.883 63.436 76.383 63.572 75.75 C 63.673 75.277 63.737 74.721 63.763 74.082 C 63.772 73.855 63.776 73.627 63.776 73.4 C 63.777 73.029 63.758 72.657 63.719 72.288 C 63.687 71.99 63.638 71.693 63.572 71.4 C 63.484 71.023 63.316 70.668 63.078 70.359 C 62.909 70.137 62.716 69.932 62.503 69.75 C 61.925 69.25 61.059 68.783 59.905 68.35 C 59.505 68.201 59.101 68.064 58.694 67.939 C 57.71 67.634 56.518 67.321 55.117 67 C 52.129 66.283 49.758 65.534 48.003 64.753 C 47.963 64.735 47.924 64.718 47.885 64.7 C 47.209 64.398 46.559 64.045 45.939 63.645 C 45.085 63.089 44.376 62.474 43.809 61.8 C 42.859 60.667 42.248 59.283 41.976 57.65 C 41.868 56.992 41.786 56.329 41.728 55.665 C 41.662 54.924 41.616 54.13 41.59 53.283 C 41.576 52.755 41.568 52.228 41.569 51.7 C 41.569 49.233 41.874 47.117 42.486 45.35 C 43.097 43.583 44.115 42.133 45.542 41 C 46.254 40.442 47.033 39.969 47.86 39.593 C 48.606 39.247 49.428 38.946 50.324 38.691 C 50.63 38.604 50.937 38.524 51.246 38.45 C 52.208 38.225 53.182 38.052 54.164 37.932 C 55.92 37.711 57.901 37.6 60.109 37.6 C 61.473 37.602 62.837 37.649 64.199 37.742 C 65.349 37.82 66.5 37.922 67.647 38.05 C 70.363 38.35 72.808 38.767 74.981 39.3 L 73.759 49 C 72.452 48.771 70.976 48.549 69.332 48.336 C 68.55 48.235 67.768 48.14 66.985 48.05 C 66.051 47.942 65.116 47.851 64.179 47.776 C 63.16 47.695 62.2 47.642 61.299 47.617 C 60.903 47.606 60.506 47.6 60.109 47.6 C 57.626 47.6 55.966 47.865 55.128 48.394 C 55.053 48.441 54.981 48.493 54.913 48.55 C 54.572 48.847 54.308 49.221 54.147 49.64 C 54.022 49.947 53.929 50.294 53.87 50.681 C 53.816 51.052 53.791 51.426 53.793 51.8 C 53.793 52.624 53.827 53.301 53.897 53.831 C 53.91 53.938 53.927 54.044 53.946 54.15 C 54.048 54.717 54.319 55.2 54.761 55.6 C 55.202 56 55.898 56.35 56.849 56.65 C 57.181 56.754 57.514 56.853 57.848 56.946 C 58.663 57.173 59.654 57.425 60.822 57.7 C 61.836 57.973 62.847 58.256 63.855 58.551 C 65.785 59.116 67.415 59.647 68.743 60.144 C 68.836 60.179 68.929 60.214 69.022 60.25 C 71.025 61.017 72.553 61.933 73.606 63 C 74.526 63.939 75.169 65.106 75.463 66.377 C 75.514 66.583 75.557 66.791 75.592 67 C 75.777 68.087 75.899 69.375 75.958 70.863 C 75.987 71.608 76.001 72.354 76 73.1 C 76 75.433 75.762 77.55 75.287 79.45 C 75.007 80.607 74.531 81.71 73.883 82.714 C 73.522 83.266 73.105 83.78 72.638 84.25 C 71.974 84.91 71.218 85.474 70.393 85.928 C 69.697 86.318 68.922 86.663 68.069 86.964 C 67.778 87.066 67.484 87.162 67.188 87.25 C 66.249 87.524 65.294 87.735 64.326 87.88 C 63.317 88.036 62.221 88.149 61.039 88.218 C 60.051 88.274 59.061 88.301 58.071 88.3 C 57.036 88.299 56.002 88.263 54.968 88.192 C 54.577 88.166 54.185 88.135 53.793 88.1 C 52.299 87.967 50.788 87.767 49.26 87.5 C 47.865 87.257 46.476 86.978 45.096 86.662 C 45.007 86.642 44.918 86.621 44.829 86.6 C 43.402 86.267 42.112 85.9 40.958 85.5 Z M 28.428 87.3 L 16 87.3 L 16 18.7 L 28.428 17 L 28.428 87.3 Z" vector-effect="non-scaling-stroke" style="stroke: rgba(255, 255, 255, 0); stroke-width: 0mm; fill: rgb(255, 255, 255); clip-path: url('#clip-0');" stroke-linecap="round" fill-rule="evenodd" font-size="9pt" stroke="#ffffff" stroke-width="0mm" transform="matrix(1, 0, 0, 1, 0, 7.105427357601002e-15)"/>
</svg>